<?xml version="1.0" encoding="utf-8"?>
<?xml-stylesheet type="text/xsl" href="rss1.xsl"?>
<rss version="2.0" xmlns:atom="http://www.w3.org/2005/Atom" xmlns:content="http://purl.org/rss/1.0/modules/content/" xmlns:dc="http://purl.org/dc/elements/1.1/" xmlns:media="http://search.yahoo.com/mrss/">
<channel>
 <title>Getty</title>
 <link>http://www.gettyimg.com/</link>
 <atom:link href="http://www.gettyimg.com/" rel="self" type="application/rss+xml" />

 
                <item>
                <title><![CDATA[【HD Live Performances】FEED - 2023 MTV Video Music Awards Uncensored Backhaul 1080i H264 MPA-TSS]]></title>
                <link><![CDATA[https://sharemania.us/threads/2023-mtv-video-music-awards-uncensored-backhaul-1080i-h264-mpa-tss.228319/]]></link>
                <description><![CDATA[<article>
<blockquote class="messageText SelectQuoteContainer ugc baseHtml">
<div style="text-align: center"><img src="https://i.imgur.com/J97FQR7.png" class="bbCodeImage LbImage" alt="[​IMG]" data-url="https://i.imgur.com/J97FQR7.png" style=""> ​</div><br>
<div class="ToggleTriggerAnchor bbCodeSpoilerContainer">
<button type="button" class="button bbCodeSpoilerButton ToggleTrigger Tooltip JsOnly" data-target="> .SpoilerTarget"><span>Spoiler: <span class="SpoilerTitle">Media Info</span></span></button>
<div class="SpoilerTarget bbCodeSpoilerText"><div style="text-align: center">General​</div><div style="text-align: center">ID : 1 (0x1)​</div><div style="text-align: center">Complete name : D:\Records\2023 MTV Video Music Awards Uncensored Backhaul 1080i H264 MPA.ts​</div><div style="text-align: center">Format : MPEG-TS​</div><div style="text-align: center">File size : 37.4 GiB​</div><div style="text-align: center">Duration : 5 h 11 min​</div><div style="text-align: center">Overall bit rate mode : Variable​</div><div style="text-align: center">Overall bit rate : 17.2 Mb/s​</div><div style="text-align: center">Video​</div><div style="text-align: center">ID : 3010 (0xBC2)​</div><div style="text-align: center">Menu ID : 30001 (0x7531)​</div><div style="text-align: center">Format : AVC​</div><div style="text-align: center">Format/Info : Advanced Video Codec​</div><div style="text-align: center">Format profile : Main@L4​</div><div style="text-align: center">Format settings : CABAC / 4 Ref Frames​</div><div style="text-align: center">Format settings, CABAC : Yes​</div><div style="text-align: center">Format settings, Reference frames : 4 frames​</div><div style="text-align: center">Codec ID : 27​</div><div style="text-align: center">Duration : 5 h 11 min​</div><div style="text-align: center">Bit rate : 15.6 Mb/s​</div><div style="text-align: center">Width : 1 920 pixels​</div><div style="text-align: center">Height : 1 080 pixels​</div><div style="text-align: center">Display aspect ratio : 16:9​</div><div style="text-align: center">Frame rate : 25.000 FPS​</div><div style="text-align: center">Color space : YUV​</div><div style="text-align: center">Chroma subsampling : 4:2:0​</div><div style="text-align: center">Bit depth : 8 bits​</div><div style="text-align: center">Scan type : Interlaced​</div><div style="text-align: center">Scan type, store method : Separated fields​</div><div style="text-align: center">Scan order : Top Field First​</div><div style="text-align: center">Bits/(Pixel*Frame) : 0.300​</div><div style="text-align: center">Stream size : 33.9 GiB (91%)​</div><div style="text-align: center">Color range : Limited​</div><div style="text-align: center">Color primaries : BT.709​</div><div style="text-align: center">Transfer characteristics : BT.709​</div><div style="text-align: center">Matrix coefficients : BT.709​</div><div style="text-align: center">Audio #1​</div><div style="text-align: center">ID : 3011 (0xBC3)​</div><div style="text-align: center">Menu ID : 30001 (0x7531)​</div><div style="text-align: center">Format : MPEG Audio​</div><div style="text-align: center">Format version : Version 1​</div><div style="text-align: center">Format profile : Layer 2​</div><div style="text-align: center">Codec ID : 3​</div><div style="text-align: center">Duration : 5 h 11 min​</div><div style="text-align: center">Bit rate mode : Constant​</div><div style="text-align: center">Bit rate : 192 kb/s​</div><div style="text-align: center">Channel(s) : 2 channels​</div><div style="text-align: center">Sampling rate : 48.0 kHz​</div><div style="text-align: center">Frame rate : 41.667 FPS (1152 SPF)​</div><div style="text-align: center">Compression mode : Lossy​</div><div style="text-align: center">Delay relative to video : 110 ms​</div><div style="text-align: center">Stream size : 428 MiB (1%)​</div><div style="text-align: center">Language : English​</div><div style="text-align: center">Audio #2​</div><div style="text-align: center">ID : 3012 (0xBC4)​</div><div style="text-align: center">Menu ID : 30001 (0x7531)​</div><div style="text-align: center">Format : MPEG Audio​</div><div style="text-align: center">Format version : Version 1​</div><div style="text-align: center">Format profile : Layer 2​</div><div style="text-align: center">Codec ID : 3​</div><div style="text-align: center">Duration : 5 h 11 min​</div><div style="text-align: center">Bit rate mode : Constant​</div><div style="text-align: center">Bit rate : 192 kb/s​</div><div style="text-align: center">Channel(s) : 2 channels​</div><div style="text-align: center">Sampling rate : 48.0 kHz​</div><div style="text-align: center">Frame rate : 41.667 FPS (1152 SPF)​</div><div style="text-align: center">Compression mode : Lossy​</div><div style="text-align: center">Delay relative to video : 30 ms​</div><div style="text-align: center">Stream size : 428 MiB (1%)​</div><div style="text-align: center">Language : English​</div><div style="text-align: center">Audio #3​</div><div style="text-align: center">ID : 3013 (0xBC5)​</div><div style="text-align: center">Menu ID : 30001 (0x7531)​</div><div style="text-align: center">Format : MPEG Audio​</div><div style="text-align: center">Format version : Version 1​</div><div style="text-align: center">Format profile : Layer 2​</div><div style="text-align: center">Codec ID : 3​</div><div style="text-align: center">Duration : 5 h 11 min​</div><div style="text-align: center">Bit rate mode : Constant​</div><div style="text-align: center">Bit rate : 192 kb/s​</div><div style="text-align: center">Channel(s) : 2 channels​</div><div style="text-align: center">Sampling rate : 48.0 kHz​</div><div style="text-align: center">Frame rate : 41.667 FPS (1152 SPF)​</div><div style="text-align: center">Compression mode : Lossy​</div><div style="text-align: center">Delay relative to video : 70 ms​</div><div style="text-align: center">Stream size : 428 MiB (1%)​</div><div style="text-align: center">Language : English​</div><div style="text-align: center">Audio #4​</div><div style="text-align: center">ID : 3014 (0xBC6)​</div><div style="text-align: center">Menu ID : 30001 (0x7531)​</div><div style="text-align: center">Format : MPEG Audio​</div><div style="text-align: center">Format version : Version 1​</div><div style="text-align: center">Format profile : Layer 2​</div><div style="text-align: center">Codec ID : 3​</div><div style="text-align: center">Duration : 5 h 11 min​</div><div style="text-align: center">Bit rate mode : Constant​</div><div style="text-align: center">Bit rate : 192 kb/s​</div><div style="text-align: center">Channel(s) : 2 channels​</div><div style="text-align: center">Sampling rate : 48.0 kHz​</div><div style="text-align: center">Frame rate : 41.667 FPS (1152 SPF)​</div><div style="text-align: center">Compression mode : Lossy​</div><div style="text-align: center">Delay relative to video : 70 ms​</div><div style="text-align: center">Stream size : 428 MiB (1%)​</div><div style="text-align: center">Language : English​</div><div style="text-align: center">Menu​</div><div style="text-align: center">ID : 301 (0x12D)​</div><div style="text-align: center">Menu ID : 30001 (0x7531)​</div><div style="text-align: center">Format : AVC / MPEG Audio / MPEG Audio / MPEG Audio / MPEG Audio​</div><div style="text-align: center">Duration : 5 h 11 min​</div><div style="text-align: center">List : 3010 (0xBC2) (AVC) / 3011 (0xBC3) (MPEG Audio, English) / 3012 (0xBC4) (MPEG Audio, English) / 3013 (0xBC5) (MPEG Audio, English) / 3014 (0xBC6) (MPEG Audio, English)​</div><div style="text-align: center">Language : / English / English / English / English<br>
Maximum bit rate : 200000000<br>
​</div></div>
</div><div style="text-align: center"><br>
<br>
Download:<br>
<div class="bbCodeBlock bbCodeVfcHH HiddenContent">
<div class="attribution type">Hidden Content:</div>
<blockquote>You must reply before you can see the hidden data contained here.</blockquote>
</div></div>
<div class="messageTextEndMarker">&nbsp;</div>
</blockquote>
</article>]]></description>
                <author><![CDATA[theslothsidd]]></author>
                </item>

                
                <item>
                <title><![CDATA[【Actresses】Kylee Nash - Celebrity Sex Tape (2012)]]></title>
                <link><![CDATA[https://sharemania.us/threads/kylee-nash-celebrity-sex-tape-2012.228321/]]></link>
                <description><![CDATA[<article>
<blockquote class="messageText SelectQuoteContainer ugc baseHtml">
THANK YOU DEAREST!!!!
<div class="messageTextEndMarker">&nbsp;</div>
</blockquote>
</article>]]></description>
                <author><![CDATA[piqeros]]></author>
                </item>

                
                <item>
                <title><![CDATA[【Actresses】Kylee Nash - Celebrity Sex Tape (2012)]]></title>
                <link><![CDATA[https://sharemania.us/threads/kylee-nash-celebrity-sex-tape-2012.228320/]]></link>
                <description><![CDATA[<article>
<blockquote class="messageText SelectQuoteContainer ugc baseHtml">
thank you
<div class="messageTextEndMarker">&nbsp;</div>
</blockquote>
</article>]]></description>
                <author><![CDATA[piqeros]]></author>
                </item>

                </channel></rss>